<svg xmlns="http://www.w3.org/2000/svg" xmlns:xlink="http://www.w3.org/1999/xlink" width="352" height="352" viewBox="0 0 352 352">
  <defs>
    <clipPath id="clip-path">
      <path id="Path_661" data-name="Path 661" d="M683.73,182.531l6.579-37.88,37.271,6.049L721,188.581Z" transform="translate(-683.73 -144.651)" fill="none"/>
    </clipPath>
    <clipPath id="clip-path-2">
      <path id="Path_663" data-name="Path 663" d="M705.16,185.862l3.293-18.959,18.665,3.029-3.293,18.959Z" transform="translate(-705.16 -166.903)" fill="none"/>
    </clipPath>
    <clipPath id="clip-path-3">
      <path id="Path_665" data-name="Path 665" d="M710.124,196.221l1.219-7.021,6.909,1.121-1.219,7.021Z" transform="translate(-710.124 -189.2)" fill="none"/>
    </clipPath>
  </defs>
  <g id="illutration-left" transform="translate(-172 -83)">
    <circle id="Ellipse_257" data-name="Ellipse 257" cx="176" cy="176" r="176" transform="translate(172 83)" fill="#00D3FF" opacity="0.068"/>
    <g id="Group_397" data-name="Group 397" transform="translate(-263.771 29.278)">
      <path id="Path_608" data-name="Path 608" d="M672.613,121.053s0-6.587,8.614-6.08,144.406,24.321,144.406,24.321,8.614.507,7.6,9.12a184.726,184.726,0,0,1-4.054,20.267l-5.067,20.267-5.067,20.774-2.533,7.094s-3.04,6.08-13.174,3.04S675.653,193,675.653,193l-7.6-1.52s-6.587-.507-6.08-10.64S672.613,121.053,672.613,121.053Z" transform="translate(-105.655 -18.363)" fill="#FF980F"/>
      <path id="Path_609" data-name="Path 609" d="M957.283,483.991" transform="translate(-251.349 -200.418)" fill="none" stroke="#000" stroke-linecap="round" stroke-miterlimit="10" stroke-width="4"/>
      <path id="Path_610" data-name="Path 610" d="M658.521,270.62a1.536,1.536,0,0,1-.378-.047,1.52,1.52,0,0,1-1.1-1.849c.266-1.043.449-1.727.6-2.295.29-1.082.465-1.734.907-3.737a1.52,1.52,0,0,1,2.968.656c-.457,2.068-.638,2.745-.938,3.868-.15.56-.33,1.233-.593,2.261A1.521,1.521,0,0,1,658.521,270.62Z" transform="translate(-103.215 -90.66)" fill="#161c49"/>
      <path id="Path_611" data-name="Path 611" d="M631.59,409.64a1.537,1.537,0,0,1-.291-.028,1.519,1.519,0,0,1-1.2-1.781q.5-2.564,1.005-5.126a1.52,1.52,0,0,1,2.982.592q-.507,2.556-1,5.113A1.521,1.521,0,0,1,631.59,409.64Z" transform="translate(-89.93 -159.715)" fill="#161c49"/>
      <path id="Path_612" data-name="Path 612" d="M762.5,513.432a14.725,14.725,0,0,1-4.173-.594c-3-.763-127.857-32.476-138.813-35.463-3.833-1.046-6.481-2.991-7.87-5.781-2-4.018-.616-8.373-.294-9.266,1.067-5.817,2.33-11.73,3.551-17.449,1.692-7.919,3.441-16.107,4.722-24.272a1.52,1.52,0,0,1,3,.471c-1.294,8.246-3.052,16.476-4.753,24.435-1.227,5.741-2.495,11.678-3.558,17.494l-.027.149-.056.141c-.013.033-1.452,3.785.142,6.96.99,1.971,2.988,3.379,5.94,4.183,11.007,3,137.529,35.137,138.806,35.462l.106.031c.036.012,4.1,1.3,7.484-.518,2.024-1.092,3.454-3.124,4.249-6.04L774,491.738a1.52,1.52,0,0,1,2.942.767l-3.04,11.654c-1.031,3.78-2.972,6.448-5.773,7.947A11.882,11.882,0,0,1,762.5,513.432Z" transform="translate(-80.318 -168.517)" fill="#161c49"/>
      <path id="Path_613" data-name="Path 613" d="M645,299" transform="translate(-97.296 -109.16)" fill="none" stroke="#000" stroke-linecap="round" stroke-miterlimit="10" stroke-width="4"/>
      <path id="Path_614" data-name="Path 614" d="M797.414,203.752a19.779,19.779,0,0,1-5.673-.915c-9.963-2.989-126.4-26.588-127.572-26.826l-7.537-1.507a7.379,7.379,0,0,1-3.878-1.823c-1.654-1.456-3.566-4.4-3.279-10.135.5-9.982,10-56.71,10.643-59.877a7.6,7.6,0,0,1,2.293-4.968c1.773-1.672,4.349-2.419,7.656-2.226,8.558.5,138.112,23.209,144.489,24.327a10.652,10.652,0,0,1,6.883,3.359,9.074,9.074,0,0,1,1.818,7.168,187.514,187.514,0,0,1-4.085,20.439l-5.063,20.255-5.1,20.893-2.593,7.234C806.3,199.381,804.017,203.751,797.414,203.752ZM669.065,97.979a6.97,6.97,0,0,0-4.891,1.543,5.065,5.065,0,0,0-1.528,3.308l-.025.244c-.1.5-10.121,49.676-10.617,59.6-.435,8.69,4.706,9.294,4.925,9.315l.138.02,7.6,1.52c4.805.974,117.727,23.861,127.8,26.883,8.485,2.546,11.312-1.762,11.65-2.346l2.478-6.938,5.051-20.71,5.068-20.275a184.6,184.6,0,0,0,4.025-20.108,6.671,6.671,0,0,0-1.234-5.232,8.225,8.225,0,0,0-5.187-2.476l-.141-.017C812.824,122.07,678.363,98.5,669.92,98Q669.48,97.979,669.065,97.979Zm-7.685,4.841h0Z" transform="translate(-99.489 -8.743)" fill="#161c49"/>
      <path id="Path_615" data-name="Path 615" d="M818.564,317.458a1.521,1.521,0,0,1-1.479-1.877c1.659-6.886,3.256-13.923,4.8-20.728,2.318-10.219,4.715-20.787,7.448-31.415,1-4,1.768-8.1,2.512-12.062.751-4.007,1.528-8.152,2.553-12.249,6.949-26.408,13.037-52.637,19.747-85.062,2.545-13.238,4.569-24.911,6.556-37.813,0-.512.035-1.011.066-1.5a7.132,7.132,0,0,0-.413-3.785l-.082-.2c-1.005-3.016-4.505-4.66-5.652-5.126a221.77,221.77,0,0,0-24.069-5.461c-3.466-.652-7.049-1.326-10.7-2.086-5.476-.982-10.879-2.02-16.1-3.024-13.715-2.635-26.67-5.124-40.493-6.579l-.076-.01C746.818,85.928,713,80.966,711.21,80.9L711.1,80.9c-8.691-.724-13.421,1.391-14.074,6.286a1.52,1.52,0,1,1-3.014-.4c.623-4.673,4.134-10.015,17.33-8.915,2.832.173,37.956,5.372,52.269,7.608,13.937,1.469,26.943,3.968,40.711,6.613,5.217,1,10.612,2.038,16.11,3.025,3.66.762,7.228,1.433,10.679,2.082a223.591,223.591,0,0,1,24.456,5.56l.122.043c1.765.706,6,2.785,7.43,6.91a9.949,9.949,0,0,1,.68,5.237c-.031.5-.06.966-.06,1.425l-.018.231c-2,12.985-4.032,24.722-6.6,38.057-6.724,32.5-12.824,58.779-19.784,85.224-1,3.991-1.766,8.09-2.51,12.054-.751,4.007-1.528,8.152-2.553,12.249-2.724,10.6-5.117,21.142-7.43,31.34-1.546,6.815-3.145,13.862-4.808,20.769A1.522,1.522,0,0,1,818.564,317.458Z" transform="translate(-121.468)" fill="#161c49"/>
      <path id="Path_616" data-name="Path 616" d="M1049,118" transform="translate(-296.595 -19.87)" fill="none" stroke="#000" stroke-linecap="round" stroke-miterlimit="10" stroke-width="4"/>
      <path id="Path_617" data-name="Path 617" d="M1092,118" transform="translate(-317.807 -19.87)" fill="none" stroke="#000" stroke-linecap="round" stroke-miterlimit="10" stroke-width="4"/>
      <path id="Path_618" data-name="Path 618" d="M646,438" transform="translate(-97.789 -177.73)" fill="none" stroke="#000" stroke-linecap="round" stroke-miterlimit="10" stroke-width="4"/>
      <path id="Path_619" data-name="Path 619" d="M645.5,438.5" transform="translate(-97.542 -177.977)" fill="none" stroke="#fff" stroke-miterlimit="10" stroke-width="1"/>
      <path id="Path_620" data-name="Path 620" d="M630.5,416.5" transform="translate(-90.143 -167.124)" fill="none" stroke="#fff" stroke-miterlimit="10" stroke-width="1"/>
      <path id="Path_621" data-name="Path 621" d="M558,410" transform="translate(-54.377 -163.918)" fill="none" stroke="#000" stroke-linecap="round" stroke-miterlimit="10" stroke-width="4"/>
      <path id="Path_622" data-name="Path 622" d="M853.536,345.226a10.12,10.12,0,0,1-2.654-.387c-5.369-1.464-68.168-15-71.263-15.667a5.323,5.323,0,0,1-3.64-1.616,4.7,4.7,0,0,1-1.01-3.857,53.977,53.977,0,0,0,.5-5.419l.008-.137a6.912,6.912,0,0,1,2.212-4.357,4.246,4.246,0,0,1,3.28-.811c3.5.5,25.928,5.074,27.582,5.626,1.483.495,36.984,9.1,40.8,9.572a32.965,32.965,0,0,1,7.811,2.064,4.563,4.563,0,0,1,3.42,5.452,21.807,21.807,0,0,1-1.586,5.846,5.279,5.279,0,0,1-2.343,2.9A6.05,6.05,0,0,1,853.536,345.226ZM778,318.372c-.008.387-.065,2.042-.516,5.641a2.314,2.314,0,0,0,.388,1.858,2.882,2.882,0,0,0,1.911.772l.257.028c2.691.58,65.967,14.212,71.51,15.724a4.964,4.964,0,0,0,3.817-.143,2.758,2.758,0,0,0,1.207-1.475l.034-.135.062-.124a19.015,19.015,0,0,0,1.4-5.186c.316-2.21-1.184-2.574-1.488-2.625l-.149-.025-.14-.06a30.8,30.8,0,0,0-7.26-1.935c-4.126-.516-39.694-9.152-41.285-9.682-1.264-.422-23.322-4.976-27.14-5.521a1.7,1.7,0,0,0-1.364.3A4.394,4.394,0,0,0,778,318.372Z" transform="translate(-161.385 -116.029)" fill="#161c49"/>
      <path id="Path_623" data-name="Path 623" d="M875,475" transform="translate(-210.758 -195.983)" fill="none" stroke="#000" stroke-linecap="round" stroke-miterlimit="10" stroke-width="4"/>
      <path id="Path_624" data-name="Path 624" d="M756.979,422.441s1.013-2.027,4.053-1.52,21.787,5.067,23.814,5.574,10.64,2.533,10.64,2.533,3.04.507,2.533,4.053a17.869,17.869,0,0,1-1.013,4.56,3.046,3.046,0,0,1-4.054,1.52c-3.04-1.013-26.348-5.574-27.361-6.08s-7.6-2.027-7.6-2.027-3.547-.507-3.04-3.04A27.04,27.04,0,0,1,756.979,422.441Z" transform="translate(-151.512 -169.265)" fill="#FF980F"/>
      <path id="Path_625" data-name="Path 625" d="M928.517,374.307a5.054,5.054,0,0,1-1.88-.384,1.013,1.013,0,1,1,.753-1.882,2.562,2.562,0,0,0,2.245-.046c1.975-1.028,3.186-4.558,3.485-5.832l2.03-8.121,12.664-54.2,13.175-55.233,8.609-39.5c3.494-17.995,10.11-52.9,10.11-56.026,0-3.254-1.833-4.1-1.911-4.132a1.022,1.022,0,0,1-.535-1.323,1.006,1.006,0,0,1,1.3-.552c.129.052,3.17,1.322,3.17,6.008,0,4.1-9.738,54.3-10.152,56.435l-8.618,39.544-13.178,55.248L937.12,358.519l-2.03,8.122c-.049.21-1.324,5.49-4.52,7.152A4.4,4.4,0,0,1,928.517,374.307Z" transform="translate(-235.917 -34.176)" fill="#161c49"/>
      <path id="Path_626" data-name="Path 626" d="M768.115,505.149a4.468,4.468,0,0,1-1.7-.348c-13.831-3.552-130.272-33.467-132.8-34.478-2.828-1.131-2.737-4.075-2.278-5.549l7.586-37.931a3.218,3.218,0,0,1,2.391-2.562,6.629,6.629,0,0,1,3.253.072c5.087,1.25,125.7,30.921,130.741,32.432,4.9,1.472,5.367,4.916,4.921,6.578-.39,1.865-7.11,34.012-8.11,38.011a4.765,4.765,0,0,1-2.459,3.441A3.676,3.676,0,0,1,768.115,505.149Zm-.711-2.68a1.628,1.628,0,0,0,1.212.041,2.638,2.638,0,0,0,1.046-1.748c1-3.984,8.025-37.614,8.1-37.954l.022-.089c.055-.224.48-2.4-3.2-3.505-4.979-1.494-129.407-32.1-130.663-32.411A4.191,4.191,0,0,0,642,426.72a.7.7,0,0,0-.593.62l-7.616,38.079-.025.075c-.1.313-.543,1.944.788,2.477,2.467.912,87.814,22.9,132.6,34.4l.131.034.121.06ZM640.166,427.092h0Z" transform="translate(-90.435 -170.875)" fill="#161c49"/>
      <path id="Path_627" data-name="Path 627" d="M675.954,354.7a7.226,7.226,0,0,1-2.081-.324c-5.17-1.55-23.225-6.563-25.7-7.059-2.561-.512-19.319-6.836-21.472-7.65-1.722-.539-4.477-3.047-3.013-8.9,1.734-6.935,5.465-23.463,5.528-24.981,0-1.545,2.735-14.173,3.579-18.029l.48-2.4a6,6,0,0,1,1.834-4.041,6.092,6.092,0,0,1,4.9-1.349c5.156.515,32.567,8.825,33.732,9.178l10.129,3.039,3.472.992c.932.19,5.279,1.394,4.7,7.2-.52,5.2-5.14,28.207-5.644,29.718-.354,1.062-2.891,11.984-4.514,19.084a7.515,7.515,0,0,1-3.07,4.743A5.393,5.393,0,0,1,675.954,354.7ZM639.1,282.962a2.819,2.819,0,0,0-1.948.61,3.04,3.04,0,0,0-.839,1.963v.151l-.542,2.708c-1.678,7.67-3.479,16.381-3.512,17.419,0,1.929-4.532,21.345-5.619,25.694-1.132,4.527.948,5.257.969,5.263l.121.04c7.489,2.833,19.272,7.178,21.041,7.532,2.531.506,20.773,5.566,25.98,7.128a2.948,2.948,0,0,0,2.473-.137,4.707,4.707,0,0,0,1.675-2.733l.013-.067c.416-1.823,4.085-17.85,4.6-19.4.494-1.507,5-24.039,5.5-29.058.349-3.491-1.959-3.881-2.223-3.914l-.229-.047-3.547-1.013-10.153-3.046c-9.77-2.966-29.265-8.675-33.156-9.064C639.491,282.972,639.288,282.962,639.1,282.962Zm-4.814,5.106h0Z" transform="translate(-86.577 -99.748)" fill="#161c49"/>
      <path id="Path_628" data-name="Path 628" d="M689.349,359.772a1.013,1.013,0,0,1-.946-.65l-2.458-6.4c-1.117-3.2-4.906-11.751-9.1-13.277-5.039-1.833-14.221,3.9-14.313,3.958l-6.08,3.548c-.9.609-7.639,5.029-11.851,3.554a4.507,4.507,0,0,1-2.832-3.1c-1.966-6.392-4.7-9.829-7.5-9.428-3.2.457-7.534,4.276-7.578,4.314a1.013,1.013,0,0,1-1.346-1.515c.2-.174,4.832-4.262,8.637-4.806,3.945-.562,7.4,3.285,9.726,10.839a2.465,2.465,0,0,0,1.564,1.784c2.8.981,8.218-2.076,10.07-3.337l.06-.038,6.08-3.547c.38-.24,10.086-6.3,16.058-4.13,5.957,2.166,10.137,13.981,10.313,14.484l2.447,6.373a1.014,1.014,0,0,1-.946,1.377Z" transform="translate(-87.429 -127.37)" fill="#161c49"/>
      <path id="Path_629" data-name="Path 629" d="M574,359" transform="translate(-62.27 -138.759)" fill="none" stroke="#000" stroke-linecap="round" stroke-miterlimit="10" stroke-width="4"/>
      <path id="Path_630" data-name="Path 630" d="M670.107,322.214a8.107,8.107,0,1,1,8.107-8.107A8.116,8.116,0,0,1,670.107,322.214Zm0-14.187a6.08,6.08,0,1,0,6.08,6.08A6.087,6.087,0,0,0,670.107,308.027Z" transform="translate(-105.682 -112.613)" fill="#161c49"/>
      <path id="Path_631" data-name="Path 631" d="M937.3,570.13a1.013,1.013,0,0,1-.126-2.019l1.951-.245c2.289-.287,4.656-.584,6.974-.917,12.3-1.77,21.741-3.3,30.625-4.967.619-.116,1.407-.24,2.32-.385,5.1-.8,15.712-2.478,17.807-6.791.607-1.248.447-2.667-.486-4.336a1.013,1.013,0,1,1,1.768-.99c1.264,2.259,1.446,4.348.541,6.211-2.557,5.265-13.047,6.919-19.314,7.908-.894.141-1.666.262-2.263.374-8.913,1.671-18.384,3.207-30.709,4.981-2.337.336-4.714.634-7.012.922l-1.948.246A1.1,1.1,0,0,1,937.3,570.13Z" transform="translate(-240.99 -232.47)" fill="#161c49"/>
      <path id="Path_632" data-name="Path 632" d="M1008.891,515.061a1.01,1.01,0,0,1-.618-.21c-10.6-8.154-21.73-16.036-32.494-23.658q-5.2-3.687-10.355-7.355a1.013,1.013,0,1,1,1.178-1.65q5.139,3.671,10.349,7.35c10.779,7.634,21.926,15.527,32.559,23.706a1.013,1.013,0,0,1-.619,1.817Z" transform="translate(-255.156 -199.436)" fill="#161c49"/>
      <path id="Path_633" data-name="Path 633" d="M1078,517" transform="translate(-310.901 -216.702)" fill="none" stroke="#000" stroke-linecap="round" stroke-miterlimit="10" stroke-width="4"/>
      <path id="Path_634" data-name="Path 634" d="M651.98,601.745a49.714,49.714,0,0,1-16.536-2.983c-9.294-3.3-32.445-10.021-51.048-15.424-11.045-3.208-20.584-5.978-24.842-7.339-.685-.219-1.235-.4-1.636-.545-6.961-2.486-35.582-10.026-35.87-10.1L455.306,545.81c-.305-.112-7.472-2.788-7.534-7.891-.057-4.612,5.551-9.07,17.143-13.63a1.267,1.267,0,1,1,.928,2.357c-13.574,5.339-15.56,9.336-15.538,11.242.04,3.193,5.379,5.35,5.84,5.529l66.582,19.494c1.148.3,28.981,7.634,36.045,10.156.382.136.9.31,1.555.518,4.225,1.35,13.749,4.116,24.777,7.319,18.634,5.412,41.825,12.147,51.188,15.47,9.5,3.372,19.034,3.753,26.837,1.076l.206-.07c1.272-.43,44.263-17.407,66.818-26.324.254-.093,22.295-8.132,30.2-13.07,1.731-1.082,2.633-2.138,2.541-2.975-.16-1.452-2.977-2.9-4.316-3.37l-6.539-2.01a1.267,1.267,0,0,1,.745-2.422l6.587,2.027c.62.216,5.661,2.075,6.042,5.493.213,1.913-1.037,3.731-3.716,5.405-8.127,5.079-29.724,12.957-30.64,13.29-2.637,1.043-65.38,25.847-66.914,26.359l-.185.063A36.891,36.891,0,0,1,651.98,601.745Z" transform="translate(0 -220.255)" fill="#161c49"/>
      <path id="Path_635" data-name="Path 635" d="M636.768,597.728a1.267,1.267,0,0,1-.609-2.378l26.854-14.694a1.267,1.267,0,0,1,1.216,2.222l-26.854,14.694A1.263,1.263,0,0,1,636.768,597.728Z" transform="translate(-92.609 -248.028)" fill="#161c49"/>
      <path id="Path_636" data-name="Path 636" d="M707.78,586.9a1.264,1.264,0,0,1-.344-.048L595.965,555.434,487.639,524.052a1.267,1.267,0,0,1,.7-2.434L596.66,553,708.123,584.41a1.267,1.267,0,0,1-.343,2.486Z" transform="translate(-19.216 -218.956)" fill="#161c49"/>
      <path id="Path_637" data-name="Path 637" d="M651,621.966a66.1,66.1,0,0,1-22.455-4.144c-25-9-94.974-26.709-95.677-26.887l-74.447-21.211c-.956-.161-10.418-1.929-10.418-8.591v-9.12a1.013,1.013,0,0,1,2.027,0v9.12c0,5.14,8.685,6.585,8.772,6.6l.119.026,74.474,21.219c.675.17,70.747,17.9,95.839,26.937,12.832,4.619,23.216,4.393,29.667,3.39a36.2,36.2,0,0,0,11.042-3.32l.107-.052c.866-.36,86.645-35.978,89.619-37.465,1.8-.9,2.458-5.226,2.451-7.742a1.014,1.014,0,0,1,1.01-1.016h0a1.013,1.013,0,0,1,1.013,1.009c0,.794-.069,7.811-3.571,9.562-3.023,1.511-85.46,35.744-89.7,37.5C670.063,618.229,662.878,621.966,651,621.966Z" transform="translate(-0.113 -233.475)" fill="#161c49"/>
      <path id="Path_638" data-name="Path 638" d="M618.477,235.966a1.266,1.266,0,0,1-.962-.442c-2.639-3.08-2.876-7.014-3.1-10.819-.063-1.056-.124-2.054-.233-3.039,0-.018,0-.037-.005-.055-.5-7.517-1.069-16.036,3.2-23.514q.021-.038.046-.074a16.721,16.721,0,0,1,4.4-4.4,1.256,1.256,0,0,1,.2-.11c3.74-1.6,8.61-3.227,13.1-1.542a1.267,1.267,0,0,1-.89,2.372c-3.609-1.353-7.818.051-11.107,1.452a14.109,14.109,0,0,0-3.584,3.6c-3.865,6.8-3.331,14.883-2.856,22.022.115,1.04.178,2.107.241,3.139.195,3.242.38,6.319,2.007,8.683,9.425-2.9,16.223-7.151,20.766-12.994a1.266,1.266,0,1,1,2,1.555c-5.011,6.447-12.494,11.065-22.877,14.119A1.259,1.259,0,0,1,618.477,235.966Z" transform="translate(-81.92 -56.006)" fill="#161c49"/>
      <path id="Path_639" data-name="Path 639" d="M625.013,276.614a1.013,1.013,0,0,1-.278-1.988c.1-.029,10.43-3.009,13.749-6.329a1.013,1.013,0,0,1,1.433,1.433c-3.69,3.69-14.181,6.718-14.625,6.845A1,1,0,0,1,625.013,276.614Z" transform="translate(-86.936 -93.867)" fill="#161c49"/>
      <path id="Path_640" data-name="Path 640" d="M622.614,178.214a1.013,1.013,0,0,1-.894-.535l-7.6-14.187a1.013,1.013,0,1,1,1.787-.957l7.6,14.187a1.013,1.013,0,0,1-.892,1.492Z" transform="translate(-82.003 -41.576)" fill="#161c49"/>
      <path id="Path_641" data-name="Path 641" d="M599.867,149.734a8.867,8.867,0,1,1,8.867-8.867A8.877,8.877,0,0,1,599.867,149.734Zm0-15.2a6.334,6.334,0,1,0,6.334,6.334A6.34,6.34,0,0,0,599.867,134.533Z" transform="translate(-70.657 -26.776)" fill="#161c49"/>
      <path id="Path_642" data-name="Path 642" d="M584.013,252.093a1.013,1.013,0,0,1-.352-1.963l13.681-5.067a1.013,1.013,0,1,1,.7,1.9l-13.681,5.067A1.01,1.01,0,0,1,584.013,252.093Z" transform="translate(-66.71 -82.52)" fill="#161c49"/>
      <path id="Path_643" data-name="Path 643" d="M562.374,266.747a9.374,9.374,0,1,1,9.374-9.374A9.384,9.384,0,0,1,562.374,266.747Zm0-16.214a6.84,6.84,0,1,0,6.84,6.84A6.848,6.848,0,0,0,562.374,250.533Z" transform="translate(-51.911 -84.001)" fill="#161c49"/>
      <path id="Path_644" data-name="Path 644" d="M581,282" transform="translate(-65.724 -100.773)" fill="none" stroke="#000" stroke-linecap="round" stroke-linejoin="round" stroke-width="4"/>
      <path id="Path_645" data-name="Path 645" d="M590.135,296.254a1.013,1.013,0,0,1-.9-.539l-9.12-17.227a1.014,1.014,0,0,1,1.792-.949l9.12,17.227a1.013,1.013,0,0,1-.895,1.488Z" transform="translate(-65.23 -98.307)" fill="#161c49"/>
      <path id="Path_646" data-name="Path 646" d="M598.607,325.714a8.111,8.111,0,1,1,8.107-8.107A8.116,8.116,0,0,1,598.607,325.714Zm0-13.681a5.568,5.568,0,1,0,5.134,3.4A5.58,5.58,0,0,0,598.607,312.033Z" transform="translate(-70.41 -114.34)" fill="#161c49"/>
      <path id="Path_647" data-name="Path 647" d="M652,210" transform="translate(-100.749 -65.255)" fill="none" stroke="#000" stroke-linecap="round" stroke-linejoin="round" stroke-width="4"/>
      <path id="Path_648" data-name="Path 648" d="M652,247" transform="translate(-100.749 -83.507)" fill="none" stroke="#000" stroke-linecap="round" stroke-linejoin="round" stroke-width="4"/>
      <path id="Path_649" data-name="Path 649" d="M638.09,228.314a12.448,12.448,0,0,1-4.372-.831,8.837,8.837,0,0,1-4.923-4.977,11.279,11.279,0,0,1,.3-9.059c2.271-5,8.032-5.211,10.762-4.625a1.013,1.013,0,0,1-.424,1.982c-.268-.056-6.335-1.266-8.493,3.482a9.275,9.275,0,0,0-.276,7.445,6.809,6.809,0,0,0,3.762,3.854,8.873,8.873,0,0,0,5.4.5,1.013,1.013,0,0,1,.652,1.919A7.9,7.9,0,0,1,638.09,228.314Z" transform="translate(-88.903 -64.561)" fill="#161c49"/>
      <path id="Path_650" data-name="Path 650" d="M1018.422,247" transform="translate(-281.51 -83.507)" fill="none" stroke="#000" stroke-linecap="round" stroke-linejoin="round" stroke-width="4"/>
      <path id="Path_651" data-name="Path 651" d="M1017,248" transform="translate(-280.809 -84.001)" fill="none" stroke="#000" stroke-linecap="round" stroke-linejoin="round" stroke-width="4"/>
      <g id="Group_369" data-name="Group 369" transform="translate(620.422 133.98)">
        <path id="Path_652" data-name="Path 652" d="M796.845,195.44s.507-5.574,5.573-4.56,12.667,3.04,16.721,3.547,8.614,1.013,8.614,1.013,6.587,0,5.067,6.587-5.067,23.308-5.573,25.334-1.013,7.6-9.627,5.574-19.254-4.56-20.774-5.067-7.6-1.013-6.08-8.107S796.845,195.44,796.845,195.44Z" transform="translate(-789.506 -189.742)" fill="#fff"/>
        <path id="Path_653" data-name="Path 653" d="M819.97,233.393a15.733,15.733,0,0,1-3.574-.46c-12.6-2.966-19.623-4.679-20.863-5.092-.158-.053-.373-.1-.625-.166-2.1-.517-7.673-1.892-6.125-9.114,1.458-6.8,5.749-23.069,6.073-24.3a7.057,7.057,0,0,1,2.4-4.557,5.283,5.283,0,0,1,4.369-.81c1.936.387,4.179.907,6.553,1.458,3.751.869,7.63,1.769,10.094,2.077,3.781.472,8.057.951,8.553,1.006a7.122,7.122,0,0,1,5.118,2.283,6.279,6.279,0,0,1,.872,5.545c-.818,3.543-2.2,9.938-3.427,15.58-1.027,4.734-1.913,8.822-2.151,9.772-.036.142-.071.3-.109.478-.32,1.444-.854,3.86-3.1,5.268A7.513,7.513,0,0,1,819.97,233.393Zm-19.722-42.612a2.874,2.874,0,0,0-1.778.551,5.163,5.163,0,0,0-1.607,3.212,1.093,1.093,0,0,1-.029.168c-.046.172-4.572,17.285-6.069,24.274-1.048,4.891,1.839,6.034,4.628,6.722.316.078.583.145.782.212.812.271,5.06,1.365,20.685,5.042,2.7.636,4.754.531,6.095-.311,1.524-.957,1.911-2.71,2.194-3.99.043-.195.083-.373.123-.532.229-.919,1.113-4.993,2.136-9.71,1.225-5.648,2.613-12.05,3.433-15.606a4.4,4.4,0,0,0-.477-3.819,5.189,5.189,0,0,0-3.606-1.527.975.975,0,0,1-.108-.006c-.046-.005-4.613-.513-8.627-1.015-2.569-.321-6.5-1.232-10.3-2.113-2.359-.547-4.587-1.064-6.494-1.445A5.007,5.007,0,0,0,800.248,190.781Zm-4.393,3.671h0Z" transform="translate(-788.516 -188.755)" fill="#161c49"/>
      </g>
      <g id="Group_370" data-name="Group 370" transform="translate(665.411 143.507)">
        <path id="Path_654" data-name="Path 654" d="M884.222,215.861s-3.547,17.734-4.053,19.254-3.04,9.627,4.053,11.147,18.747,4.56,18.747,4.56,9.627,3.547,10.64-6.587a186.317,186.317,0,0,1,4.053-22.294s3.04-8.107-4.56-9.12-20.267-3.04-20.267-3.04S885.743,207.754,884.222,215.861Z" transform="translate(-878.298 -208.543)" fill="#fff"/>
        <path id="Path_655" data-name="Path 655" d="M905.6,251.452a12.655,12.655,0,0,1-3.918-.646c-.782-.2-11.886-3.087-18.661-4.538a6.774,6.774,0,0,1-4.729-3.211c-1.734-3.036-.791-7.1-.073-9.248.357-1.071,2.6-12.023,4.019-19.126.534-2.836,1.766-4.869,3.663-6.042a8.408,8.408,0,0,1,6.156-.838c.887.141,12.933,2.061,20.191,3.028a6.6,6.6,0,0,1,5.122,2.981c1.766,2.948.473,6.882.275,7.439a185.818,185.818,0,0,0-4.016,22.1c-.33,3.3-1.561,5.644-3.657,6.955A8.18,8.18,0,0,1,905.6,251.452Zm-15.647-41.866a5.667,5.667,0,0,0-3,.788,6.639,6.639,0,0,0-2.722,4.688l0,.012c-.364,1.822-3.574,17.84-4.086,19.376-.49,1.473-1.482,5.163-.089,7.6a4.774,4.774,0,0,0,3.393,2.234c7.034,1.507,18.674,4.54,18.791,4.571a.89.89,0,0,1,.094.03c.037.013,3.889,1.384,6.575-.3,1.532-.963,2.443-2.791,2.707-5.434a188.722,188.722,0,0,1,4.079-22.439,1.029,1.029,0,0,1,.034-.11c.012-.033,1.266-3.485-.1-5.752a4.7,4.7,0,0,0-3.648-2.009c-7.526-1-20.166-3.023-20.293-3.044a1.052,1.052,0,0,1-.119-.026A6.781,6.781,0,0,0,889.952,209.585Zm-6.72,5.29h0Z" transform="translate(-877.307 -207.557)" fill="#161c49"/>
      </g>
      <g id="Group_371" data-name="Group 371" transform="translate(672.334 99.99)">
        <path id="Path_656" data-name="Path 656" d="M893.49,150.69s-2.533,8.614,3.547,9.627,17.734,3.547,20.774,4.053,9.627,3.04,11.147-6.587S933.519,136,933.519,136s2.027-7.094-5.573-7.6-22.8-4.56-22.8-4.56-6.08-1.52-7.094,4.56S893.49,150.69,893.49,150.69Z" transform="translate(-891.956 -122.655)" fill="#fff"/>
        <path id="Path_657" data-name="Path 657" d="M921.352,165.074a17.844,17.844,0,0,1-3.686-.49c-.365-.077-.7-.148-1.006-.2-1.277-.213-4.04-.776-7.239-1.427-4.452-.907-9.992-2.035-13.536-2.626a5.364,5.364,0,0,1-3.852-2.457c-1.943-3.1-.657-7.907-.511-8.418.177-.813,3.568-16.355,4.543-22.213a6.4,6.4,0,0,1,2.7-4.543,7.82,7.82,0,0,1,5.64-.833c.166.044,15.208,4.038,22.622,4.532,2.6.174,4.5,1.081,5.637,2.7,1.837,2.612.885,6.048.844,6.193-.021.089-3.038,12.2-4.533,21.667-.529,3.352-1.733,5.7-3.577,6.967A6.967,6.967,0,0,1,921.352,165.074Zm-27.874-15.083c-.026.09-1.243,4.393.276,6.811a3.377,3.377,0,0,0,2.466,1.53c3.58.6,9.139,1.729,13.607,2.639,3.18.648,5.926,1.207,7.168,1.414.327.055.694.131,1.09.215,1.831.385,4.339.913,6.164-.346,1.37-.943,2.286-2.832,2.725-5.615,1.51-9.561,4.547-21.753,4.578-21.875.015-.056.732-2.7-.55-4.512-.768-1.085-2.15-1.7-4.108-1.831-7.611-.508-22.37-4.426-22.995-4.592a5.81,5.81,0,0,0-4.032.573,4.473,4.473,0,0,0-1.8,3.174c-1.006,6.036-4.535,22.182-4.57,22.344-.006.024-.011.047-.018.069Zm-.972-.286h0Z" transform="translate(-890.971 -121.67)" fill="#161c49"/>
      </g>
      <g id="Group_372" data-name="Group 372" transform="translate(629.148 90.835)">
        <path id="Path_658" data-name="Path 658" d="M811.923,111.885s0-7.6,8.107-6.08,23.308,5.067,23.308,5.067,6.08,1.013,4.053,7.6-4.56,21.787-4.56,21.787-1.013,8.107-8.107,7.094-22.8-5.067-22.8-5.067a6.043,6.043,0,0,1-4.053-7.094C808.883,129.619,811.923,111.885,811.923,111.885Z" transform="translate(-806.723 -104.589)" fill="#fff"/>
        <path id="Path_659" data-name="Path 659" d="M834.935,147.467a9.521,9.521,0,0,1-1.34-.1c-7.068-1.01-22.267-4.923-22.911-5.089a7,7,0,0,1-4.8-8.256c.967-5.321,3.822-21.96,4.039-23.222a8.1,8.1,0,0,1,2.572-5.71c1.652-1.371,3.917-1.8,6.732-1.27,7.883,1.479,22.626,4.907,23.326,5.07a6.979,6.979,0,0,1,4.417,2.914,7.067,7.067,0,0,1,.4,5.977c-1.983,6.447-4.5,21.5-4.529,21.656-.017.136-.571,4.325-3.556,6.6A6.989,6.989,0,0,1,834.935,147.467Zm-17.9-41.837a4.921,4.921,0,0,0-3.228,1.012,6.176,6.176,0,0,0-1.853,4.258,1.17,1.17,0,0,1-.014.168c-.031.177-3.053,17.8-4.056,23.318a5.031,5.031,0,0,0,3.352,5.943c.114.028,15.692,4.039,22.648,5.033a5.386,5.386,0,0,0,4.177-.93c2.317-1.77,2.777-5.251,2.781-5.286.109-.664,2.573-15.384,4.6-21.96a5.168,5.168,0,0,0-.186-4.315,5.006,5.006,0,0,0-3.065-1.987l-.063-.013c-.152-.035-15.272-3.559-23.264-5.058A9.929,9.929,0,0,0,817.031,105.63Zm-6.093,5.268h0Z" transform="translate(-805.738 -103.602)" fill="#161c49"/>
      </g>
      <g id="Iconly_Broken_Bag" data-name="Iconly Broken Bag" transform="translate(637.294 100.064)">
        <g id="Basket" transform="translate(0)">
          <path id="Basket-2" d="M822.587,141.692a5.982,5.982,0,0,1-.119-5.656.932.932,0,1,1,1.765.6l-.009.025a4.932,4.932,0,0,0-.013,4.113,5.1,5.1,0,0,0,3.5,2.12l9.535,1.923c1.892.382,3.279.247,4.125-.441a5.342,5.342,0,0,0,1.505-3.953l.505-7.093c.023-1.738-.738-2.98-2.054-3.245l-11.662-2.352c-1.255-.253-2.438.6-3.182,2.265l-.563,1.484a.938.938,0,0,1-1.746-.676l.579-1.517c1.334-3.051,3.583-3.686,5.265-3.347l9.806,1.978a4.17,4.17,0,0,0-.811-2.667,4.094,4.094,0,0,0-5.729-.831h0l-.021.1a.94.94,0,0,1-1.1-1.526,5.971,5.971,0,0,1,9.519,5.293c1.756.354,3.626,1.82,3.568,5.074l-.511,7.169a7.026,7.026,0,0,1-2.269,5.312c-1.3,1.034-3.132,1.3-5.6.8l-9.521-1.92A5.977,5.977,0,0,1,822.587,141.692Zm14.849-7.232a1.07,1.07,0,0,1-.345-.668.887.887,0,0,1,.008-.412.693.693,0,0,1,.042-.21l.04-.2.139-.157a.477.477,0,0,1,.158-.132l.183-.1a.815.815,0,0,1,.207-.056.72.72,0,0,1,.211-.022.928.928,0,0,1,.408.082,1.349,1.349,0,0,1,.355.234,1.517,1.517,0,0,1,.224.351.417.417,0,0,1,.057.2.629.629,0,0,1,.023.211.685.685,0,0,1-.042.209.892.892,0,0,1-.164.381.853.853,0,0,1-.321.294,1.069,1.069,0,0,1-.8.166,1.286,1.286,0,0,1-.395-.169Zm-6.912-1.634a1.039,1.039,0,0,1-.155-.8.7.7,0,0,1,.043-.209.624.624,0,0,1,.1-.186.61.61,0,0,1,.13-.159.49.49,0,0,1,.156-.132.717.717,0,0,1,.181-.094.6.6,0,0,1,.2-.061.673.673,0,0,1,.216-.02.924.924,0,0,1,.408.083.662.662,0,0,1,.186.1.61.61,0,0,1,.158.13.729.729,0,0,1,.139.176.485.485,0,0,1,.094.181,1.083,1.083,0,0,1,.068.2l.022.21a1.14,1.14,0,0,1-.043.209,1.04,1.04,0,0,1-1.9.379Z" transform="translate(-821.815 -121.816)" fill="#161c49"/>
        </g>
      </g>
      <g id="Iconly_Broken_Message" data-name="Iconly Broken Message" transform="translate(679.948 109.869)">
        <g id="Message-8" transform="translate(0)">
          <path id="Message-9" d="M911.786,163.174a7.223,7.223,0,0,1-5.647-8.492l1.511-7.668A7.214,7.214,0,0,1,916.1,141.3l10.207,2.013a7.236,7.236,0,0,1,5.648,8.492l-.351,1.777a.879.879,0,0,1-1.03.7h0l-.008-.027a.871.871,0,0,1-.557-.373.885.885,0,0,1-.132-.657l.347-1.757a5.5,5.5,0,0,0-4.261-6.408l-10.208-2.012a5.5,5.5,0,0,0-6.374,4.31l-1.511,7.667a5.5,5.5,0,0,0,4.261,6.409l10.208,2.012a5.5,5.5,0,0,0,6.377-4.311.887.887,0,0,1,1.73.341,7.236,7.236,0,0,1-8.451,5.714Zm4.655-9.206-4.213-5.027a.9.9,0,0,1,.112-1.249.866.866,0,0,1,1.222.1l.008.009,4.256,5.025a1.764,1.764,0,0,0,2.149.424l5.792-3.044.011,0a.881.881,0,0,1,.809,1.566l-5.795,3.054A3.518,3.518,0,0,1,916.442,153.967Z" transform="translate(-905.998 -141.169)" fill="#161c49"/>
        </g>
      </g>
      <g id="Iconly_Broken_Activity" data-name="Iconly Broken Activity" transform="translate(672.602 152.843)">
        <g id="Activity-8" transform="translate(0 0)">
          <path id="Activity-9" d="M902.669,250.5a.915.915,0,0,1-.716-1.07.927.927,0,0,1,1.083-.711l3.569.735c3.536.728,5.889-.8,6.65-4.342l1.611-7.825a.9.9,0,0,1,1.764.363l-1.611,7.825c-.921,4.473-4.293,6.677-8.779,5.753Zm-10.963-9.824,1.791-8.7c.925-4.494,4.287-6.7,8.773-5.779l7.864,1.619a.916.916,0,0,1,.7,1.078.905.905,0,0,1-1.071.7h-.009l-7.858-1.617c-3.536-.728-5.892.821-6.621,4.359l-1.791,8.7c-.729,3.54.827,5.881,4.363,6.609a.927.927,0,0,1,.714,1.081.914.914,0,0,1-1.077.706C893,248.506,890.783,245.152,891.705,240.673Zm5.77.422a.914.914,0,0,1,.1-1.28l4.428-3.82a.92.92,0,0,1,1.294.1l2.751,3.245,3.643-3.085a.9.9,0,0,1,1.173,1.349l-4.325,3.7a.974.974,0,0,1-.674.216.915.915,0,0,1-.613-.325L902.5,237.95l-3.736,3.219a.905.905,0,0,1-1.289-.075Zm14.956-10.514a3.209,3.209,0,1,1,2.521,3.773l-.021,0a3.19,3.19,0,0,1-2.5-3.754Zm1.784.367a1.385,1.385,0,1,0,1.639-1.073h0a1.385,1.385,0,0,0-1.634,1.074Z" transform="translate(-891.499 -225.983)" fill="#161c49"/>
        </g>
      </g>
      <g id="Group_380" data-name="Group 380" transform="translate(567.328 111.634)">
        <g id="Group_379" data-name="Group 379" transform="translate(0 0)">
          <g id="Group_378" data-name="Group 378" style="isolation: isolate">
            <g id="Group_377" data-name="Group 377" clip-path="url(#clip-path)">
              <g id="Group_376" data-name="Group 376" transform="translate(2.29 2.125)">
                <g id="Group_375" data-name="Group 375">
                  <g id="Group_374" data-name="Group 374">
                    <g id="Group_373" data-name="Group 373">
                      <path id="Path_660" data-name="Path 660" d="M715.576,150.459l-8.8-1.428a14.751,14.751,0,0,0-16.747,12.157l-1.554,8.946A14.362,14.362,0,0,0,700.2,186.911l8.815,1.43.062.01a14.67,14.67,0,0,0,16.658-12.089l1.568-9.026a14.362,14.362,0,0,0-11.722-16.778" transform="translate(-688.251 -148.845)" fill="#00D3FF"/>
                    </g>
                  </g>
                </g>
              </g>
            </g>
          </g>
        </g>
      </g>
      <g id="Group_388" data-name="Group 388" transform="translate(578.187 122.909)">
        <g id="Group_387" data-name="Group 387" transform="translate(0 0)">
          <g id="Group_386" data-name="Group 386" style="isolation: isolate">
            <g id="Group_385" data-name="Group 385" clip-path="url(#clip-path-2)">
              <g id="Group_384" data-name="Group 384" transform="translate(2.239 2.677)">
                <g id="Group_383" data-name="Group 383">
                  <g id="Group_382" data-name="Group 382">
                    <g id="Group_381" data-name="Group 381">
                      <path id="Path_662" data-name="Path 662" d="M727.343,172.222a4.948,4.948,0,0,0-1.28.02q-7.15.755-14.3,1.507a3.764,3.764,0,0,0-1.1.25,1.5,1.5,0,0,0-.453.282,1.841,1.841,0,0,0-.308.411c-.05.08-.088.166-.134.25a1.5,1.5,0,0,0-.114.268,1.749,1.749,0,0,0-.075.587,2.06,2.06,0,0,0,.378,1.113A3.93,3.93,0,0,0,711.9,178.2a10.52,10.52,0,0,0,1.89.491,9.3,9.3,0,0,0,5.188-.588c.266-.118.582-.344.509-.628a.645.645,0,0,0-.254-.313c-.734-.581-1.472-1.166-2.206-1.747a.34.34,0,0,1-.15-.209c-.008-.112.09-.2.183-.271.209-.16.423-.319.637-.478a.846.846,0,0,1,.394-.2.486.486,0,0,1,.13,0,1.1,1.1,0,0,1,.275.093q1.756.749,3.506,1.5a1.607,1.607,0,0,0,.348.113.619.619,0,0,0,.162.006,1.142,1.142,0,0,0,.561-.3,4.692,4.692,0,0,1,1.978-1.095,1.494,1.494,0,0,1,.5-.01.7.7,0,0,1,.556.366.927.927,0,0,1-.045.754,4.765,4.765,0,0,1-1.851,1.826.877.877,0,0,0-.456,1.005c.075.953.151,1.9.225,2.855a3.421,3.421,0,0,1-.072,1.331,1.162,1.162,0,0,1-.937.849.591.591,0,0,1-.13-.006.353.353,0,0,1-.2-.094.617.617,0,0,1-.1-.206l-.876-2.564a.527.527,0,0,0-.156-.274.274.274,0,0,0-.126-.056.742.742,0,0,0-.559.291,9.6,9.6,0,0,0-2.438,7.455,3.376,3.376,0,0,0,.668,1.847,1.97,1.97,0,0,0,2.757.143,3.686,3.686,0,0,0,.705-1.159q3.006-6.569,6.009-13.143c.095-.206.19-.416.269-.634a2.755,2.755,0,0,0,.2-.877,2.031,2.031,0,0,0-1.367-1.984,2.068,2.068,0,0,0-.287-.067" transform="translate(-709.579 -172.188)" fill="#fff"/>
                    </g>
                  </g>
                </g>
              </g>
            </g>
          </g>
        </g>
      </g>
      <g id="Group_396" data-name="Group 396" transform="translate(580.702 134.206)">
        <g id="Group_395" data-name="Group 395" transform="translate(0)">
          <g id="Group_394" data-name="Group 394" style="isolation: isolate">
            <g id="Group_393" data-name="Group 393" clip-path="url(#clip-path-3)">
              <g id="Group_392" data-name="Group 392" transform="translate(0.496 0.607)">
                <g id="Group_391" data-name="Group 391">
                  <g id="Group_390" data-name="Group 390">
                    <g id="Group_389" data-name="Group 389">
                      <path id="Path_664" data-name="Path 664" d="M715.738,190.426a2.174,2.174,0,0,0-1.627.393l-2.081,1.507a2.246,2.246,0,0,0-.535,3.082l.706,1.005a2.114,2.114,0,0,0,1.4.885,2.171,2.171,0,0,0,1.628-.393l2.077-1.508a2.239,2.239,0,0,0,.536-3.082l-.7-1a2.122,2.122,0,0,0-1.405-.886" transform="translate(-711.102 -190.399)" fill="#fff"/>
                    </g>
                  </g>
                </g>
              </g>
            </g>
          </g>
        </g>
      </g>
      <g id="Iconly_Broken_Graph" data-name="Iconly Broken Graph" transform="translate(629.563 144.801)">
        <g id="Graph-8" transform="translate(0 0)">
          <path id="Graph-9" d="M810.358,231.192a10.861,10.861,0,0,1-3.721-9.562,6.741,6.741,0,0,1,.215-1.254,10.911,10.911,0,0,1,10.983-8.337,1.053,1.053,0,1,1-.027,2.106l-.051,0A8.832,8.832,0,0,0,808.9,220.9a5.468,5.468,0,0,0-.172.961,8.863,8.863,0,0,0,16.523,5.33,1.064,1.064,0,0,1,1.426-.4,1.045,1.045,0,0,1,.522.616,1.026,1.026,0,0,1-.079.794,11,11,0,0,1-16.763,2.987Zm12.109-8.6a2.12,2.12,0,0,1-1.6-2.366l1.459-8.505a1.939,1.939,0,0,1,.868-1.3,2.056,2.056,0,0,1,1.561-.25l.043.01a11.744,11.744,0,0,1,8.65,12.154l.015,0-.043.179a1.936,1.936,0,0,1-.8,1.259,1.96,1.96,0,0,1-1.466.318l-8.551-1.467Zm.483-2.007,8.434,1.451a9.613,9.613,0,0,0-1.775-6.128,9.732,9.732,0,0,0-5.241-3.684Z" transform="translate(-806.557 -210.11)" fill="#161c49"/>
        </g>
      </g>
      <path id="Path_666" data-name="Path 666" d="M851.949,372.221a1,1,0,0,1-.227-.026L774.2,354.462a1.014,1.014,0,0,1,.452-1.976l77.523,17.734a1.013,1.013,0,0,1-.225,2Z" transform="translate(-160.643 -135.533)" fill="#161c49"/>
      <path id="Path_667" data-name="Path 667" d="M847.961,388.656a1,1,0,0,1-.227-.025L770.211,370.9a1.014,1.014,0,0,1,.452-1.976l77.523,17.735a1.013,1.013,0,0,1-.225,2Z" transform="translate(-158.676 -143.64)" fill="#161c49"/>
      <path id="Path_668" data-name="Path 668" d="M845.81,405.769a1,1,0,0,1-.227-.026L768.06,388.009a1.013,1.013,0,1,1,.452-1.975l77.523,17.734a1.013,1.013,0,0,1-.225,2Z" transform="translate(-157.615 -152.082)" fill="#161c49"/>
      <path id="Path_669" data-name="Path 669" d="M880.475,432.018a.951.951,0,0,1-.114-.007,54.1,54.1,0,0,1-9.123-2.051c-1.266-.364-2.462-.709-3.677-1.013-6.724-1.582-13.24-2.874-19.542-4.124q-2.64-.524-5.275-1.051a1.014,1.014,0,0,1,.4-1.987q2.634.531,5.27,1.05c6.319,1.253,12.854,2.549,19.625,4.142,1.264.316,2.533.681,3.761,1.035A52.626,52.626,0,0,0,880.586,430a1.013,1.013,0,0,1-.11,2.02Z" transform="translate(-194.444 -169.722)" fill="#161c49"/>
      <path id="Path_670" data-name="Path 670" d="M834.327,421.9a.978.978,0,0,1-.218-.024l-1.9-.416a1.014,1.014,0,0,1,.434-1.98l1.9.417a1.013,1.013,0,0,1-.216,2Z" transform="translate(-189.255 -168.584)" fill="#161c49"/>
      <path id="Path_671" data-name="Path 671" d="M779.19,504.536a1.01,1.01,0,0,1-.521-.145l-127.178-76.51a1.013,1.013,0,1,1,1.045-1.737l127.178,76.51a1.013,1.013,0,0,1-.523,1.882Z" transform="translate(-100.255 -171.81)" fill="#161c49"/>
      <path id="Path_672" data-name="Path 672" d="M633.142,503.192a1.013,1.013,0,0,1-.043-2.026L778.453,495h.044a1.013,1.013,0,0,1,.043,2.026l-145.353,6.165Z" transform="translate(-90.946 -205.849)" fill="#161c49"/>
      <path id="Path_673" data-name="Path 673" d="M827,419" transform="translate(-187.079 -168.357)" fill="none" stroke="#000" stroke-linecap="round" stroke-miterlimit="10" stroke-width="4"/>
      <path id="Path_674" data-name="Path 674" d="M574.5,484.5" transform="translate(-62.517 -200.67)" fill="none" stroke="#000" stroke-linecap="round" stroke-miterlimit="10" stroke-width="5"/>
      <path id="Path_675" data-name="Path 675" d="M481.287,499.917a1.267,1.267,0,0,1-.464-2.446l70.14-27.545a1.267,1.267,0,0,1,.926,2.358L481.75,499.829A1.266,1.266,0,0,1,481.287,499.917Z" transform="translate(-15.909 -193.436)" fill="#161c49"/>
    </g>
  </g>
</svg>
